<?xml version="1.0" standalone="no"?>
<!DOCTYPE svg PUBLIC "-//W3C//DTD SVG 20010904//EN"
 "http://www.w3.org/TR/2001/REC-SVG-20010904/DTD/svg10.dtd">
<svg version="1.0" xmlns="http://www.w3.org/2000/svg"
 width="325.000000pt" height="165.000000pt" viewBox="0 0 325.000000 165.000000"
 preserveAspectRatio="xMidYMid meet">

<g transform="translate(0.000000,165.000000) scale(0.100000,-0.100000)"
fill="#000000" stroke="none">
<path d="M333 903 l-99 -218 -65 -45 -64 -45 194 -3 c288 -4 348 14 405 119
59 107 43 265 -36 348 -43 46 -85 61 -166 61 l-69 0 -100 -217z m220 96 c74
-34 87 -196 21 -263 -25 -24 -33 -26 -110 -26 -46 0 -84 2 -84 6 0 22 126 294
136 294 7 0 24 -5 37 -11z"/>
<path d="M782 858 l3 -263 60 0 60 0 3 68 c3 66 4 67 30 67 22 0 38 -14 81
-70 l53 -70 64 0 c35 0 64 4 64 8 0 5 -24 40 -54 78 l-54 70 33 21 c77 51 99
186 43 271 -45 67 -90 82 -251 82 l-137 0 2 -262z m272 131 c36 -28 37 -89 1
-124 -20 -21 -34 -25 -85 -25 l-60 0 0 85 0 85 59 0 c44 0 65 -5 85 -21z"/>
<path d="M1431 1098 c-5 -13 -52 -128 -105 -256 -53 -128 -96 -237 -96 -243 0
-6 25 -9 63 -7 59 3 63 4 76 36 l15 32 111 0 111 0 17 -35 17 -36 63 3 c34 2
61 7 60 13 -1 6 -48 124 -105 262 l-103 253 -58 0 c-50 0 -59 -3 -66 -22z
m103 -242 c15 -38 24 -71 22 -73 -2 -2 -31 -3 -64 -1 l-60 3 31 78 c17 43 34
74 38 70 4 -4 19 -39 33 -77z"/>
<path d="M1800 855 l0 -265 203 2 202 3 0 55 0 55 -142 3 -143 3 0 44 0 45
120 0 121 0 -3 58 -3 57 -117 3 -118 3 0 44 0 45 145 0 145 0 0 55 0 55 -205
0 -205 0 0 -265z"/>
<path d="M2252 1098 c8 -13 45 -72 82 -131 l67 -109 -81 -130 c-44 -71 -80
-132 -80 -134 0 -2 31 -4 69 -4 l69 0 41 70 c23 38 45 71 49 74 5 3 23 -21 42
-52 53 -90 55 -92 127 -92 34 0 63 2 63 5 0 3 -36 63 -80 135 l-79 129 72 118
c40 65 77 124 81 131 5 9 -10 12 -63 12 l-70 0 -42 -70 c-23 -38 -44 -70 -48
-70 -3 0 -24 31 -47 68 l-40 67 -74 3 -73 3 15 -23z"/>
<path d="M2267 484 c-18 -18 -6 -54 23 -69 17 -9 30 -23 30 -32 0 -12 -7 -14
-36 -10 -30 5 -34 4 -24 -8 16 -19 54 -19 70 0 18 21 9 46 -24 64 -33 19 -32
36 4 36 14 1 25 5 25 10 0 12 -58 19 -68 9z"/>
<path d="M2455 456 c-8 -20 -22 -52 -29 -71 -16 -37 -4 -49 14 -15 14 27 56
26 70 -1 7 -11 14 -18 17 -15 7 7 -36 124 -49 132 -4 3 -15 -11 -23 -30z m35
-37 c0 -13 -7 -19 -21 -19 -11 0 -18 3 -16 8 2 4 7 15 10 25 8 22 27 13 27
-14z"/>
<path d="M2622 473 c-13 -25 -5 -41 29 -58 16 -9 29 -23 29 -32 0 -12 -7 -14
-35 -10 -41 7 -48 -9 -8 -19 58 -15 82 46 29 75 -32 18 -32 35 -1 38 38 2 40
3 25 13 -24 15 -58 12 -68 -7z"/>
<path d="M2370 360 c0 -5 5 -10 10 -10 6 0 10 5 10 10 0 6 -4 10 -10 10 -5 0
-10 -4 -10 -10z"/>
<path d="M2560 360 c0 -5 5 -10 10 -10 6 0 10 5 10 10 0 6 -4 10 -10 10 -5 0
-10 -4 -10 -10z"/>
</g>
</svg>
